<svg viewBox="0 0 653 451" fill="none" xmlns="http://www.w3.org/2000/svg">
<g clip-path="url(#clip0_44_5688)">
<path d="M256.627 12.6268C256.604 14.0997 256.321 15.5529 255.796 16.9036C255.27 18.2543 254.512 19.4759 253.565 20.4987C252.617 21.5214 251.499 22.3253 250.274 22.8643C249.048 23.4033 247.74 23.667 246.424 23.6402H199.089C198.917 23.6353 198.746 23.6304 198.574 23.6156C198.131 23.5836 197.69 23.5161 197.255 23.4138V4.66442C197.255 3.91423 197.459 3.18183 197.841 2.56531C198.223 1.94878 198.764 1.47756 199.392 1.21472H246.785C249.441 1.27093 251.97 2.50401 253.815 4.64344C255.66 6.78287 256.672 9.65394 256.627 12.6268Z" fill="#E6E6E6"/>
<path d="M506.536 2.57569e-05H201.262C200.604 -0.00214843 199.952 0.133341 199.339 0.3995C198.298 0.834932 197.402 1.61557 196.769 2.63692C196.136 3.65827 195.797 4.87156 195.798 6.11436V378.681C195.798 380.303 196.374 381.858 197.399 383.004C198.424 384.151 199.813 384.795 201.262 384.796H506.536C507.985 384.795 509.374 384.151 510.399 383.004C511.424 381.858 511.999 380.303 512 378.681V6.11436C511.999 4.49292 511.424 2.93805 510.399 1.79152C509.374 0.644989 507.985 0.00061348 506.536 2.57569e-05ZM509.814 378.681C509.813 379.654 509.467 380.586 508.853 381.274C508.238 381.961 507.405 382.348 506.536 382.35H201.262C200.393 382.348 199.56 381.961 198.945 381.274C198.331 380.586 197.985 379.654 197.984 378.681V6.11436C197.985 5.14184 198.331 4.20957 198.945 3.52189C199.56 2.83421 200.393 2.44722 201.262 2.44576H506.536C507.405 2.44722 508.238 2.83421 508.853 3.52189C509.467 4.20957 509.813 5.14184 509.814 6.11436V378.681Z" fill="#E6E6E6"/>
<path d="M344.513 128.011C348.474 128.011 351.685 124.418 351.685 119.986C351.685 115.555 348.474 111.962 344.513 111.962C340.553 111.962 337.342 115.555 337.342 119.986C337.342 124.418 340.553 128.011 344.513 128.011Z" fill="#F97981"/>
<path d="M374.394 128.011C378.355 128.011 381.566 124.418 381.566 119.986C381.566 115.555 378.355 111.962 374.394 111.962C370.434 111.962 367.223 115.555 367.223 119.986C367.223 124.418 370.434 128.011 374.394 128.011Z" fill="#F97981"/>
<path d="M284.752 194.322C288.712 194.322 291.923 190.73 291.923 186.298C291.923 181.866 288.712 178.273 284.752 178.273C280.791 178.273 277.58 181.866 277.58 186.298C277.58 190.73 280.791 194.322 284.752 194.322Z" fill="#F97981"/>
<path d="M314.633 194.322C318.593 194.322 321.804 190.73 321.804 186.298C321.804 181.866 318.593 178.273 314.633 178.273C310.672 178.273 307.461 181.866 307.461 186.298C307.461 190.73 310.672 194.322 314.633 194.322Z" fill="#F97981"/>
<path d="M344.513 227.478C348.474 227.478 351.685 223.885 351.685 219.453C351.685 215.022 348.474 211.429 344.513 211.429C340.553 211.429 337.342 215.022 337.342 219.453C337.342 223.885 340.553 227.478 344.513 227.478Z" fill="#F97981"/>
<path d="M374.394 227.478C378.355 227.478 381.566 223.885 381.566 219.453C381.566 215.022 378.355 211.429 374.394 211.429C370.434 211.429 367.223 215.022 367.223 219.453C367.223 223.885 370.434 227.478 374.394 227.478Z" fill="#F97981"/>
<path d="M404.275 227.478C408.236 227.478 411.446 223.885 411.446 219.453C411.446 215.022 408.236 211.429 404.275 211.429C400.314 211.429 397.104 215.022 397.104 219.453C397.104 223.885 400.314 227.478 404.275 227.478Z" fill="#F97981"/>
<path d="M224.578 5.92871C224.418 6.10758 224.328 6.35018 224.328 6.60315C224.328 6.85612 224.418 7.09874 224.577 7.27764L228.237 11.3726H219.213C218.987 11.3733 218.771 11.4742 218.612 11.653C218.453 11.8318 218.363 12.074 218.363 12.3265C218.363 12.579 218.453 12.8212 218.612 13C218.771 13.1788 218.987 13.2796 219.213 13.2804H228.237L224.578 17.3752C224.418 17.5541 224.328 17.7967 224.328 18.0497C224.328 18.3027 224.418 18.5453 224.578 18.7242C224.737 18.9031 224.954 19.0036 225.18 19.0036C225.406 19.0036 225.623 18.9031 225.783 18.7242L230.898 13.001C231.058 12.8221 231.148 12.5795 231.148 12.3265C231.148 12.0735 231.058 11.8309 230.898 11.652L225.783 5.92871C225.623 5.74984 225.406 5.64935 225.18 5.64935C224.954 5.64935 224.737 5.74984 224.578 5.92871Z" fill="white"/>
<path d="M440.706 137.106H248.147C247.402 137.106 246.798 136.741 246.798 136.291C246.798 135.841 247.402 135.476 248.147 135.476H440.706C441.451 135.476 442.056 135.841 442.056 136.291C442.056 136.741 441.451 137.106 440.706 137.106Z" fill="#E6E6E6"/>
<path d="M440.706 101.09H248.147C247.402 101.09 246.798 100.725 246.798 100.275C246.798 99.8249 247.402 99.4599 248.147 99.4599H440.706C441.451 99.4599 442.056 99.8249 442.056 100.275C442.056 100.725 441.451 101.09 440.706 101.09Z" fill="#E6E6E6"/>
<path d="M441.327 170.746H247.7C247.506 170.746 247.321 170.66 247.184 170.507C247.048 170.354 246.971 170.147 246.971 169.93C246.971 169.714 247.048 169.507 247.184 169.354C247.321 169.201 247.506 169.115 247.7 169.115H441.327C441.52 169.115 441.706 169.201 441.842 169.354C441.979 169.507 442.056 169.714 442.056 169.93C442.056 170.147 441.979 170.354 441.842 170.507C441.706 170.66 441.52 170.746 441.327 170.746Z" fill="#E6E6E6"/>
<path d="M441.327 203.355H247.7C247.506 203.355 247.321 203.27 247.184 203.117C247.048 202.964 246.971 202.756 246.971 202.54C246.971 202.324 247.048 202.117 247.184 201.964C247.321 201.811 247.506 201.725 247.7 201.725H441.327C441.52 201.725 441.706 201.811 441.842 201.964C441.979 202.117 442.056 202.324 442.056 202.54C442.056 202.756 441.979 202.964 441.842 203.117C441.706 203.27 441.52 203.355 441.327 203.355Z" fill="#E6E6E6"/>
<path d="M441.327 236.78H247.7C247.506 236.78 247.321 236.695 247.184 236.542C247.048 236.389 246.971 236.181 246.971 235.965C246.971 235.749 247.048 235.542 247.184 235.389C247.321 235.236 247.506 235.15 247.7 235.15H441.327C441.52 235.15 441.706 235.236 441.842 235.389C441.979 235.542 442.056 235.749 442.056 235.965C442.056 236.181 441.979 236.389 441.842 236.542C441.706 236.695 441.52 236.78 441.327 236.78Z" fill="#E6E6E6"/>
<path d="M418.742 235.1V100.78C418.742 100.501 419.068 100.275 419.471 100.275C419.873 100.275 420.199 100.501 420.199 100.78V235.1C420.199 235.38 419.873 235.606 419.471 235.606C419.068 235.606 418.742 235.38 418.742 235.1Z" fill="#E6E6E6"/>
<path d="M388.871 235.1V100.78C388.871 100.501 389.197 100.275 389.599 100.275C390.002 100.275 390.328 100.501 390.328 100.78V235.1C390.328 235.38 390.002 235.606 389.599 235.606C389.197 235.606 388.871 235.38 388.871 235.1Z" fill="#E6E6E6"/>
<path d="M358.999 235.1V100.78C358.999 100.501 359.325 100.275 359.728 100.275C360.13 100.275 360.456 100.501 360.456 100.78V235.1C360.456 235.38 360.13 235.606 359.728 235.606C359.325 235.606 358.999 235.38 358.999 235.1Z" fill="#E6E6E6"/>
<path d="M329.856 235.1V100.78C329.856 100.501 330.182 100.275 330.585 100.275C330.987 100.275 331.313 100.501 331.313 100.78V235.1C331.313 235.38 330.987 235.606 330.585 235.606C330.182 235.606 329.856 235.38 329.856 235.1Z" fill="#E6E6E6"/>
<path d="M299.256 269.213V100.908C299.297 100.727 299.391 100.567 299.523 100.452C299.655 100.337 299.817 100.275 299.984 100.275C300.151 100.275 300.314 100.337 300.446 100.452C300.578 100.567 300.672 100.727 300.713 100.908V269.213C300.672 269.394 300.578 269.554 300.446 269.669C300.314 269.784 300.151 269.846 299.984 269.846C299.817 269.846 299.655 269.784 299.523 269.669C299.391 269.554 299.297 269.394 299.256 269.213Z" fill="#E6E6E6"/>
<path d="M268.656 269.213V100.908C268.697 100.727 268.791 100.567 268.923 100.452C269.055 100.337 269.217 100.275 269.384 100.275C269.551 100.275 269.713 100.337 269.845 100.452C269.977 100.567 270.071 100.727 270.113 100.908V269.213C270.071 269.394 269.977 269.554 269.845 269.669C269.713 269.784 269.551 269.846 269.384 269.846C269.217 269.846 269.055 269.784 268.923 269.669C268.791 269.554 268.697 269.394 268.656 269.213Z" fill="#E6E6E6"/>
<path d="M247.7 270.206C247.506 270.206 247.321 270.121 247.184 269.968C247.047 269.816 246.97 269.609 246.969 269.392C246.969 269.176 247.045 268.969 247.182 268.815C247.318 268.662 247.503 268.576 247.696 268.575L321.838 268.216C322.03 268.22 322.213 268.307 322.349 268.458C322.486 268.609 322.565 268.813 322.57 269.028C322.571 269.135 322.552 269.241 322.516 269.34C322.48 269.439 322.426 269.529 322.359 269.605C322.292 269.681 322.212 269.741 322.123 269.783C322.035 269.824 321.94 269.846 321.845 269.846L247.703 270.206H247.7Z" fill="#E6E6E6"/>
<path d="M301.906 65.3649C301.712 65.365 301.527 65.2793 301.39 65.1265C301.254 64.9737 301.177 64.7664 301.177 64.5502C301.176 64.334 301.253 64.1266 301.39 63.9736C301.526 63.8206 301.711 63.7345 301.905 63.7344L405.891 63.5891H405.892C406.085 63.5889 406.271 63.6747 406.407 63.8274C406.544 63.9802 406.621 64.1875 406.621 64.4037C406.621 64.6199 406.545 64.8274 406.408 64.9804C406.272 65.1334 406.086 65.2194 405.893 65.2196L301.907 65.3649H301.906Z" fill="#E6E6E6"/>
<path d="M370.63 331.155C367.743 331.155 364.921 330.197 362.521 328.402C360.12 326.607 358.249 324.056 357.144 321.072C356.039 318.087 355.75 314.803 356.314 311.635C356.877 308.466 358.267 305.556 360.309 303.271C362.35 300.987 364.951 299.431 367.783 298.801C370.614 298.171 373.549 298.494 376.217 299.731C378.884 300.967 381.164 303.06 382.768 305.747C384.372 308.433 385.228 311.591 385.228 314.821C385.228 316.966 384.85 319.09 384.117 321.072C383.383 323.054 382.308 324.854 380.952 326.371C379.597 327.888 377.988 329.091 376.217 329.912C374.446 330.732 372.547 331.155 370.63 331.155Z" fill="#E6E6E6"/>
<path d="M301.906 332.766C301.712 332.766 301.527 332.68 301.39 332.527C301.254 332.374 301.177 332.167 301.177 331.951C301.176 331.735 301.253 331.527 301.39 331.374C301.526 331.221 301.711 331.135 301.905 331.135L405.891 330.989H405.892C406.085 330.989 406.271 331.075 406.407 331.228C406.544 331.38 406.621 331.588 406.621 331.804C406.621 332.02 406.545 332.228 406.408 332.381C406.272 332.534 406.086 332.62 405.893 332.62L301.907 332.766H301.906Z" fill="#E6E6E6"/>
<path d="M168.834 439.427L178.128 439.426L182.55 399.313L168.832 399.314L168.834 439.427Z" fill="#FFB6B6"/>
<path d="M166.467 436.03V449.506H196.433V449.082C196.432 445.621 195.203 442.301 193.016 439.853C190.828 437.406 187.862 436.031 184.768 436.03L179.29 431.383L179.005 431.514L169.082 436.03H166.467Z" fill="#2F2E41"/>
<path d="M84.8558 425.906L93.174 430.545L113.123 396.851L100.846 390.005L84.8558 425.906Z" fill="#FFB6B6"/>
<path d="M78.7168 433.747L105.536 448.699L105.703 448.324C106.387 446.79 106.795 445.121 106.902 443.411C107.01 441.701 106.815 439.985 106.329 438.359C105.843 436.734 105.076 435.231 104.071 433.938C103.066 432.644 101.843 431.585 100.472 430.821L97.4193 423.932L97.0987 423.907L86.4324 422.986L86.2138 422.864L84.0864 421.682L78.7168 433.747Z" fill="#2F2E41"/>
<path d="M175.138 223.822L123.889 225.829L123.532 225.249C123.532 225.249 119.16 236.662 119.16 246.445C119.16 249.698 121.182 270.971 120.154 274.996C120.026 275.497 120.906 276.724 120.617 279.055C120.43 280.567 119.397 279.404 119.16 281.5C118.99 283.005 120.807 283.836 120.617 285.577C120.41 287.478 117.909 293.638 117.684 295.754C115.288 318.276 112.098 350.903 112.098 350.903C112.098 350.903 99.2848 389.304 96.5743 389.928C92.0246 390.975 88.953 400.232 91.4742 402.157C92.6747 403.073 108.191 409.24 108.191 409.24C109.044 409.413 111.711 407.916 110.012 404.376C109.699 403.724 111.564 405.383 111.874 404.602C112.204 403.773 111.557 400.472 111.934 399.551C115.325 391.281 120.532 379.822 125.465 373.938C132.755 365.244 137.372 354.171 138.642 342.335L149.958 272.121L153.837 291.811L157.046 295.36L156.166 303.634L156.318 311.665L164.332 345.09C164.332 345.09 165.534 407.512 163.603 409.494C162.558 410.568 158.121 423.792 166.518 424.984L181.773 423.667C181.773 423.667 183.828 418.82 182.8 417.095C181.773 415.37 181.834 415.841 183.088 413.018C184.342 410.195 183.828 405.412 183.828 405.412C185.826 382.932 186.615 360.338 186.189 337.752C185.424 300.656 180.79 258.04 180.79 257.172C180.751 256.284 180.897 255.398 181.217 254.585V252.243L179.248 243.947L175.138 223.822Z" fill="#2F2E41"/>
<path d="M108.788 244.68C108.359 243.859 108.095 242.941 108.016 241.993C107.938 241.046 108.046 240.09 108.333 239.194C108.62 238.297 109.079 237.482 109.678 236.806C110.277 236.13 111.001 235.609 111.8 235.28L111.431 194.077L120.514 200.506L119.47 239.558C119.875 241.096 119.762 242.746 119.153 244.196C118.543 245.647 117.479 246.797 116.162 247.428C114.846 248.059 113.368 248.128 112.009 247.622C110.65 247.116 109.504 246.069 108.788 244.68Z" fill="#FFB8B8"/>
<path d="M110.862 227.408L111.635 227.366L111.727 227.368L114.587 227.357L119.299 227.346L119.64 227.341L119.793 227.373L121.402 227.686L121.468 227.204L124.603 220.503L127.014 216.793L126.137 212.422L124.407 210.011L127.345 206.028L127.716 204.061L130.175 191.123L138.325 148.209L138.325 148.183L138.497 147.273L141.147 133.332L140.33 129.826L139.421 125.977C138.838 123.534 137.489 121.407 135.62 119.986C134.809 119.372 133.916 118.905 132.974 118.603C131.774 118.205 130.514 118.089 129.272 118.262L129.258 118.267C128.553 118.365 127.861 118.552 127.194 118.825L126.928 118.941C126.559 119.109 126.199 119.302 125.852 119.521C124.775 120.191 123.829 121.093 123.067 122.177C122.305 123.26 121.744 124.501 121.415 125.83L112.779 136.593L111.26 142.684L110.772 144.64L109.206 155.067L109.23 196.1L108.951 197.959L108.555 208.261L110.103 210.622L108.354 213.485L108.294 215.056L108.282 215.461L110.619 218.116L110.768 223.843L110.862 227.408Z" fill="#3F3D56"/>
<path d="M119.297 237.236C132.237 239.74 140.915 238.787 146.255 229.899C153.221 219.973 165.891 231.693 176.58 236.051L177.848 234.519L180.004 231.918L178.023 229.407L180.004 224.565L178.351 218.589L176.238 218.157L176.806 213.013L177.695 210.004L175.086 206.8L172.872 198.803L174.467 182.066C176.651 159.124 172.42 135.99 162.358 115.852L156.304 109.77L153.79 107.243L150.417 100.199L146.854 100.664L137.208 101.911L136.88 102.791L134.512 109.183L125.91 119.522C124.694 120.985 123.769 122.72 123.198 124.613C122.628 126.506 122.424 128.513 122.6 130.502L122.848 133.29L123.03 135.295L123.889 144.948L127.394 184.381L127.656 186.476L130.476 209.148C125.893 214.105 125.614 213.024 123.669 221.747C123.45 222.717 120.915 224.877 120.754 225.823C120.529 227.16 119.297 237.236 119.297 237.236Z" fill="#3F3D56"/>
<path d="M145.571 96.0437C154.824 96.0437 162.325 87.6502 162.325 77.2962C162.325 66.9422 154.824 58.5486 145.571 58.5486C136.318 58.5486 128.816 66.9422 128.816 77.2962C128.816 87.6502 136.318 96.0437 145.571 96.0437Z" fill="#FFB6B6"/>
<path d="M128.042 63.1835C130.291 60.5634 133.883 59.2711 136.934 60.5145C137.616 58.3302 138.82 56.3973 140.416 54.9261C142.012 53.4549 143.938 52.5019 145.985 52.1707C148.031 51.8396 150.12 52.1431 152.023 53.0481C153.926 53.9531 155.57 55.425 156.778 57.3035C157.33 57.0261 157.936 56.9129 158.539 56.9749C159.141 57.0369 159.719 57.2719 160.217 57.6571C161.205 58.4432 162.001 59.494 162.532 60.7134C163.902 63.6252 164.54 66.8982 164.379 70.184C164.219 73.4697 163.265 76.6452 161.619 79.3723C162.275 77.8909 160.431 80.4423 158.634 79.7739C157.091 79.3212 150.751 74.7725 149.169 75.0025C147.587 75.2324 147.074 73.8049 145.526 73.372C144.01 72.8295 140.141 79.8413 139.365 84.4809C139.218 85.3602 138.861 86.4525 138.062 86.4725C137.078 86.4972 136.783 84.9199 135.953 84.3276C135.562 84.1049 135.108 84.0609 134.689 84.2048C134.269 84.3488 133.916 84.6694 133.703 85.0992C133.509 85.5409 133.412 86.0281 133.42 86.5202C133.428 87.0123 133.542 87.4951 133.75 87.9284C134.174 88.7896 134.72 89.5686 135.366 90.2351L134.936 90.4994C134.513 90.8388 133.997 91.0027 133.478 90.9633C132.958 90.9238 132.467 90.6833 132.088 90.2831C130.488 91.0909 126.136 86.5352 126.714 83.7789C125.499 80.4005 124.834 76.8057 124.752 73.165C124.685 69.4927 125.86 65.9276 128.042 63.1835Z" fill="#2F2E41"/>
<path d="M250.946 174.933C250.134 175.219 249.277 175.303 248.433 175.178C247.59 175.053 246.781 174.723 246.064 174.21C245.347 173.698 244.739 173.016 244.283 172.212C243.827 171.408 243.534 170.502 243.425 169.558L207.441 160.8L215.062 152.321L248.857 162.141C250.287 162.041 251.7 162.531 252.828 163.518C253.957 164.506 254.722 165.922 254.979 167.499C255.237 169.076 254.968 170.704 254.225 172.074C253.482 173.444 252.315 174.461 250.946 174.933Z" fill="#FFB8B8"/>
<path d="M153.701 116.807C151.616 116.892 149.615 117.753 148.015 119.252C147.13 120.073 146.392 121.075 145.84 122.204C145.232 123.428 144.853 124.777 144.725 126.171L144.726 126.179C144.539 128.23 144.9 130.298 145.762 132.12C146.625 133.943 147.95 135.439 149.572 136.419L161.426 143.607L162.927 144.516C173.027 156.034 190.058 162.056 209.65 166.05L220.913 169.498L224.7 167.925L225.617 171.954L229.387 172.092L231.438 171.615L235.728 169.733L236.546 167.889L236.546 167.881L238.307 159.141L238.319 159.083L238.318 159.075L238.729 157.076L236.31 155.823L234.205 152.678L230.4 152.763L226.929 153.101L225.913 150.44L181.937 127.67L172.832 122.951L172.809 122.936L172.375 122.708L160.497 116.559L157.263 116.673L153.701 116.807Z" fill="#3F3D56"/>
<path d="M249.798 185.078C253.759 185.078 256.97 181.485 256.97 177.054C256.97 172.622 253.759 169.029 249.798 169.029C245.838 169.029 242.627 172.622 242.627 177.054C242.627 181.485 245.838 185.078 249.798 185.078Z" fill="#F97981"/>
<path d="M44.2195 445.377C38.9581 445.896 33.6596 445.093 28.7109 443.027C23.7622 440.962 19.2884 437.685 15.6162 433.437C10.8144 427.772 7.51934 420.481 4.33265 413.43C3.40502 411.378 2.44615 409.256 1.47065 407.222C0.383068 405.005 -0.0863151 402.474 0.122968 399.956C0.332251 397.438 1.21061 395.047 2.64489 393.093C4.01937 391.138 5.88533 389.69 8.00234 388.933C10.1194 388.176 12.3904 388.146 14.5229 388.846L14.9879 388.996L19.1729 407.269C19.7973 404.544 21.1374 398.403 21.9837 392.386L22.0547 391.882L22.4715 392.09C26.8414 394.254 30.9503 397.024 34.7015 400.336C41.3468 406.301 46.7515 413.813 50.5402 422.351C54.3289 430.888 56.4106 440.247 56.6405 449.775L56.6516 450.344L44.2195 445.377Z" fill="#F2F2F2"/>
<path d="M687.664 450.774L2.92489 451C2.14916 451 1.40518 450.908 0.856666 450.744C0.308148 450.58 0 450.358 0 450.126C0 449.894 0.308148 449.672 0.856666 449.508C1.40518 449.344 2.14916 449.252 2.92489 449.252L687.664 449.026C688.438 449.027 689.18 449.119 689.727 449.283C690.274 449.447 690.581 449.669 690.581 449.9C690.581 450.132 690.274 450.354 689.727 450.517C689.18 450.681 688.438 450.774 687.664 450.774Z" fill="#CACACA"/>
<path d="M373.206 54.4751H334.592C333.722 54.4751 332.888 54.0886 332.273 53.4006C331.658 52.7126 331.313 51.7795 331.313 50.8065C331.313 49.8335 331.658 48.9004 332.273 48.2124C332.888 47.5244 333.722 47.1379 334.592 47.1379H373.206C374.076 47.1379 374.91 47.5244 375.524 48.2124C376.139 48.9004 376.485 49.8335 376.485 50.8065C376.485 51.7795 376.139 52.7126 375.524 53.4006C374.91 54.0886 374.076 54.4751 373.206 54.4751Z" fill="#E6E6E6"/>
<path d="M494.83 23.3217C493.243 23.3217 491.691 22.7949 490.371 21.808C489.05 20.821 488.022 19.4182 487.414 17.7769C486.806 16.1356 486.647 14.3296 486.957 12.5873C487.267 10.8449 488.031 9.24446 489.154 7.98829C490.277 6.73212 491.707 5.87665 493.264 5.53008C494.821 5.1835 496.435 5.36137 497.902 6.04121C499.369 6.72104 500.623 7.87231 501.505 9.34941C502.387 10.8265 502.857 12.5631 502.857 14.3396C502.857 16.7218 502.012 19.0064 500.506 20.6909C499.001 22.3754 496.959 23.3217 494.83 23.3217Z" fill="#E6E6E6"/>
</g>
<g clip-path="url(#clip1_44_5688)">
<path d="M484.734 435.9C486.48 443.94 496.429 434.058 496.429 434.058L508.298 432.718C508.298 432.718 515.804 432.886 520.691 436.57C525.579 440.255 528.895 435.398 528.895 435.398C534.402 437.159 541.148 437.152 546.99 436.588C555.409 435.775 562.157 429.54 563.314 421.497C569.841 376.127 533.957 353.83 533.957 353.83L523.484 326.697C523.484 326.697 526.801 318.825 527.848 311.79C528.895 304.756 521.215 298.056 511.789 291.357C507.666 288.425 502.941 288.636 498.93 289.801C494.43 291.107 490.505 293.793 487.605 297.343C485.202 300.284 481.081 304.449 476.551 305.171C474.984 305.419 473.437 306.015 471.992 307.101C470.498 308.223 469.838 310.095 469.817 312.423C469.706 322.593 478.457 334.837 486.131 336.746C495.556 339.091 490.494 361.367 490.494 361.367C475.134 382.136 485.956 405.25 485.956 405.25L483.163 424.009C483.163 424.009 482.989 427.861 484.734 435.9Z" fill="#3F3D56"/>
<path d="M536.052 392.688L532.212 438.58C532.212 438.58 537.448 451.309 519.644 450.64C501.84 449.97 512.313 423.841 512.313 423.841L517.899 389.673" fill="#3F3D56"/>
<path d="M520.969 451C520.534 451 520.088 450.991 519.631 450.974C515.689 450.826 512.787 449.433 511.004 446.834C505.906 439.404 511.576 424.757 511.974 423.754L517.554 389.621C517.584 389.438 517.761 389.315 517.953 389.342C518.143 389.371 518.273 389.542 518.244 389.725L512.658 423.893C512.654 423.916 512.648 423.939 512.639 423.961C512.578 424.113 506.616 439.222 511.588 446.467C513.24 448.874 515.955 450.165 519.658 450.305C525.471 450.522 529.381 449.332 531.282 446.765C533.769 443.405 531.906 438.75 531.887 438.703C531.867 438.655 531.86 438.604 531.864 438.553L535.704 392.661C535.719 392.477 535.884 392.343 536.08 392.354C536.272 392.369 536.415 392.53 536.4 392.715L532.566 438.532C532.82 439.189 534.41 443.692 531.854 447.149C529.963 449.707 526.304 451 520.969 451Z" fill="#2F2E41"/>
<path d="M504.284 402.067C504.284 402.067 505.331 444.61 483.338 443.605C461.345 442.6 481.243 429.201 481.243 429.201L483.163 424.009" fill="#3F3D56"/>
<path d="M484.093 443.957C483.837 443.957 483.581 443.951 483.321 443.94C477.041 443.653 473.493 442.303 472.776 439.927C471.482 435.646 479.911 429.703 480.951 428.989L482.834 423.897C482.899 423.722 483.098 423.631 483.28 423.693C483.462 423.755 483.557 423.946 483.492 424.12L481.572 429.313C481.548 429.378 481.503 429.435 481.444 429.475C481.352 429.537 472.235 435.734 473.446 439.741C474.072 441.811 477.406 442.998 483.355 443.27C487.316 443.453 490.789 442.175 493.671 439.475C504.476 429.354 503.941 402.347 503.935 402.075C503.93 401.89 504.083 401.737 504.276 401.732C504.458 401.733 504.628 401.875 504.633 402.06C504.66 403.18 505.182 429.628 494.159 439.954C491.321 442.612 487.938 443.957 484.093 443.957Z" fill="#2F2E41"/>
<path d="M469.817 312.423C472.324 312.712 476.248 312.698 479.498 310.618C482.978 308.39 479.365 306.313 476.551 305.171C474.984 305.419 473.437 306.015 471.992 307.101C470.498 308.223 469.838 310.095 469.817 312.423Z" fill="#2F2E41"/>
<path d="M510.323 306.4C510.323 306.4 504.231 291.388 512.956 291.178C521.68 290.967 528.572 303.977 528.572 303.977C528.572 303.977 550.47 342.28 520.468 340.214C490.466 338.148 504.803 322.858 504.803 322.858C504.803 322.858 511.645 314.786 510.323 306.4Z" fill="#2F2E41"/>
<path d="M543.745 418.587C547.609 420.237 551.646 421.92 555.872 421.759C560.097 421.598 564.544 418.986 565.202 414.978C565.542 412.909 564.868 410.689 565.694 408.75C566.805 406.141 570.388 405.135 573.173 406.029C575.959 406.923 578.005 409.229 579.472 411.67C582.217 416.238 583.317 422.234 580.374 426.686C577.823 430.547 572.983 432.291 568.482 433.787C562.486 435.78 555.792 437.758 549.982 435.31C544.139 432.848 540.956 425.735 543.119 419.974" fill="#3F3D56"/>
<path d="M530.855 346.255C530.855 346.255 538.535 349.94 534.695 353.96C530.855 357.98 507.116 369.369 498.389 367.694C489.661 366.019 487.567 360.994 487.567 359.654C487.567 358.315 488.225 342.106 491.018 342.776C493.811 343.446 511.306 358.65 530.855 346.255Z" fill="#6C63FF"/>
</g>
<defs>
<clipPath id="clip0_44_5688">
<rect width="512" height="451" fill="white"/>
</clipPath>
<clipPath id="clip1_44_5688">
<rect width="310" height="162" fill="white" transform="translate(343 289)"/>
</clipPath>
</defs>
</svg>
